<?xml version="1.0" standalone="no"?>
<!DOCTYPE svg PUBLIC "-//W3C//DTD SVG 20010904//EN"
 "http://www.w3.org/TR/2001/REC-SVG-20010904/DTD/svg10.dtd">
<svg version="1.0" xmlns="http://www.w3.org/2000/svg"
 width="700.000000pt" height="700.000000pt" viewBox="0 0 700.000000 700.000000"
 preserveAspectRatio="xMidYMid meet">
<metadata>
Created by potrace 1.14, written by Peter Selinger 2001-2017
</metadata>
<g transform="translate(0.000000,700.000000) scale(0.100000,-0.100000)"
fill="#000000" stroke="none">
<path d="M0 3500 l0 -3500 3500 0 3500 0 0 3500 0 3500 -3500 0 -3500 0 0
-3500z m4480 1915 l0 -315 323 -2 322 -3 3 -982 2 -983 -325 0 -325 0 0 -315
0 -315 -950 0 -950 0 0 -615 0 -615 -355 0 -355 0 2 1913 3 1912 318 3 317 2
0 315 0 315 985 0 985 0 0 -315z"/>
<path d="M2580 4115 l0 -915 915 0 915 0 0 915 0 915 -915 0 -915 0 0 -915z"/>
</g>
</svg>
