<?xml version="1.0" encoding="UTF-8" standalone="no"?>
<!DOCTYPE svg PUBLIC "-//W3C//DTD SVG 1.1//EN" "http://www.w3.org/Graphics/SVG/1.1/DTD/svg11.dtd">
<svg width="100%" height="100%" viewBox="0 0 230 70" version="1.1" xmlns="http://www.w3.org/2000/svg" xmlns:xlink="http://www.w3.org/1999/xlink" xml:space="preserve" xmlns:serif="http://www.serif.com/" style="fill-rule:evenodd;clip-rule:evenodd;stroke-linejoin:round;stroke-miterlimit:2;">
    <g transform="matrix(1,0,0,1,-277,0)">
        <g id="full" transform="matrix(1.15,0,0,0.7,277,0)">
            <rect x="0" y="0" width="200" height="100" style="fill:none;"/>
            <g transform="matrix(0.869565,0,0,1.42857,42.6087,-17.1429)">
                <path d="M91,42L91,62L131,62L131,42L141,42L141,62L151,62L151,42L161,42L161,32L131,32L131,42L121,42L121,32L101,32L101,22L91,22L91,32L51,32L51,52L41,52L41,32L11,32L11,72L21,72L21,62L61,62L61,42L71,42L71,62L81,62L81,42L91,42ZM111,52L111,42L101,42L101,52L111,52ZM21,42L21,52L31,52L31,42L21,42ZM131,22L121,22L121,32L131,32L131,22Z"/>
            </g>
            <g transform="matrix(0.869565,0,0,1.42857,3.47826,-35.7143)">
                <path d="M26,65L16,65L16,75L26,75L26,65ZM46,65L36,65L36,75L46,75L46,65ZM26,65L46,65L46,45L16,45L16,55L26,55L26,65Z"/>
            </g>
        </g>
    </g>
</svg>
