<?xml version="1.0" encoding="UTF-8" standalone="no"?>
<!DOCTYPE svg PUBLIC "-//W3C//DTD SVG 1.1//EN" "http://www.w3.org/Graphics/SVG/1.1/DTD/svg11.dtd">
<svg width="100%" height="100%" viewBox="0 0 190 70" version="1.1" xmlns="http://www.w3.org/2000/svg" xmlns:xlink="http://www.w3.org/1999/xlink" xml:space="preserve" xmlns:serif="http://www.serif.com/" style="fill-rule:evenodd;clip-rule:evenodd;stroke-linejoin:round;stroke-miterlimit:2;">
    <g transform="matrix(1,0,0,1,-66,0)">
        <g id="text-white" transform="matrix(0.95,0,0,0.7,66,0)">
            <rect x="0" y="0" width="200" height="100" style="fill:none;"/>
            <g transform="matrix(1.05263,0,0,1.42857,-78.6279,29.4776)">
                <path d="M91.621,34.841L91.621,7.491L96.171,7.491L96.171,2.941L110.271,2.941L110.271,7.491L114.871,7.491L114.871,21.541L110.271,21.541L110.271,26.041L96.671,26.041L96.671,34.841L91.621,34.841ZM96.671,21.041L109.771,21.041L109.771,7.941L96.671,7.941L96.671,21.041Z" style="fill:white;fill-rule:nonzero;"/>
                <path d="M125.471,26.041L125.471,21.541L120.921,21.541L120.921,2.941L125.971,2.941L125.971,21.041L139.071,21.041L139.071,2.941L144.171,2.941L144.171,21.541L139.571,21.541L139.571,26.041L125.471,26.041Z" style="fill:white;fill-rule:nonzero;"/>
                <path d="M157.271,26.041L157.271,21.541L152.771,21.541L152.771,7.941L148.221,7.941L148.221,2.941L152.771,2.941L152.771,-6.109L157.771,-6.109L157.771,2.941L171.471,2.941L171.471,7.941L157.771,7.941L157.771,21.041L170.971,21.041L170.971,16.491L176.021,16.491L176.021,21.541L171.471,21.541L171.471,26.041L157.271,26.041Z" style="fill:white;fill-rule:nonzero;"/>
                <path d="M185.621,26.041L185.621,21.541L181.071,21.541L181.071,-6.109L186.121,-6.109L186.121,2.941L199.721,2.941L199.721,7.491L204.321,7.491L204.321,21.541L199.721,21.541L199.721,26.041L185.621,26.041ZM186.121,21.041L199.221,21.041L199.221,7.941L186.121,7.941L186.121,21.041Z" style="fill:white;fill-rule:nonzero;"/>
                <path d="M210.371,26.041L210.371,2.941L215.421,2.941L215.421,26.041L210.371,26.041ZM210.371,-1.059L210.371,-6.109L215.421,-6.109L215.421,-1.059L210.371,-1.059Z" style="fill:white;fill-rule:nonzero;"/>
                <path d="M229.021,26.041L229.021,21.541L224.521,21.541L224.521,7.941L219.971,7.941L219.971,2.941L224.521,2.941L224.521,-6.109L229.521,-6.109L229.521,2.941L243.221,2.941L243.221,7.941L229.521,7.941L229.521,21.041L242.721,21.041L242.721,16.491L247.771,16.491L247.771,21.541L243.221,21.541L243.221,26.041L229.021,26.041Z" style="fill:white;fill-rule:nonzero;"/>
            </g>
        </g>
    </g>
</svg>
